<?xml version="1.0" encoding="UTF-8"?><svg id="Layer_1" xmlns="http://www.w3.org/2000/svg" viewBox="0 0 74.61 52.6"><path d="M1.23,51.45V1.76h7.47c3.32,0,5.97.26,7.95.77,1.99.51,3.68,1.38,5.05,2.61,1.39,1.27,2.5,2.84,3.31,4.73.84,1.91,1.25,3.84,1.25,5.79,0,3.56-1.36,6.58-4.09,9.04,2.64.9,4.72,2.48,6.24,4.73,1.54,2.23,2.32,4.83,2.32,7.79,0,3.88-1.37,7.17-4.12,9.85-1.65,1.65-3.51,2.8-5.57,3.44-2.25.62-5.07.93-8.46.93H1.23ZM8.73,23.1h2.35c2.79,0,4.83-.62,6.13-1.85,1.3-1.23,1.95-3.05,1.95-5.45s-.67-4.11-2-5.33c-1.33-1.21-3.26-1.82-5.79-1.82h-2.64v14.45ZM8.73,44.4h4.63c3.39,0,5.88-.66,7.46-2,1.67-1.44,2.51-3.26,2.51-5.47s-.8-3.95-2.41-5.41c-1.57-1.44-4.37-2.16-8.4-2.16h-3.8v15.03Z" style="fill:#3b5999; stroke-width:0px;"/><path d="M44.32,21.01h21.43V1.57h7.5v49.68h-7.5v-23.2h-21.43v23.2h-7.5V1.57h7.5v19.44Z" style="fill:#3b5999; stroke-width:0px;"/><rect x="46.2" y="40.31" width="2.25" height="10.66" style="fill:#aa575a; stroke-width:0px;"/><rect x="49.7" y="37.89" width="3.75" height="13.11" style="fill:#a0b942; stroke-width:0px;"/><rect x="54.82" y="39.92" width="3.25" height="11.03" style="fill:#466289; stroke-width:0px;"/><rect x="61.48" y="39.39" width="2.04" height="11.28" transform="translate(9.64 -11) rotate(10.9)" style="fill:#9556a2; stroke-width:0px;"/><path d="M35.09,15.83c-.07,3.29-1.05,6.1-2.79,8.67-.24.35-.43.48-.8.17-.34-.28-.92-.41-1.05-.74-.15-.37.4-.71.61-1.09,2.82-4.87,2.83-9.74-.06-14.58-.21-.36-.26-.57.17-.73.07-.03.14-.07.2-.11,1.11-.6,1.1-.6,1.71.48,1.41,2.51,2.1,5.2,2.01,7.92Z" style="fill:#fff; stroke-width:0px;"/><path d="M27.91,22.45c-.25-.15-.52-.31-.78-.47q-.8-.5-.26-1.26c2.19-3.09,2.21-7.06.02-10.21-.25-.37-.25-.53.15-.69.11-.04.21-.1.31-.16q.99-.56,1.57.39c2.28,3.71,1.99,8.72-.69,12.08-.09.12-.15.27-.33.33Z" style="fill:#fff; stroke-width:0px;"/><path d="M22.24,20.11c-.4-.25-.76-.47-1.12-.69q-.58-.35-.1-.84c1.55-1.58,1.58-4.19.03-5.95-.32-.36-.21-.48.13-.63.16-.07.3-.16.46-.24q.95-.53,1.53.4c1.46,2.34,1.29,5.31-.46,7.46-.14.17-.31.33-.47.49Z" style="fill:#fff; stroke-width:0px;"/></svg>