<svg xmlns="http://www.w3.org/2000/svg" width="256" height="256" viewBox="0 0 76 76">
  <rect width="76" height="76" rx="14" fill="#6E56FF"/>
  <path transform="translate(4 8)" fill-rule="evenodd" clip-rule="evenodd" d="M60.2834 16.4271C60.1709 16.6005 60.0425 16.7665 59.8981 16.9231C59.887 16.9352 59.8758 16.9472 59.8645 16.9591C59.8419 16.983 59.8189 17.0066 59.7955 17.03C58.354 18.4744 56.0167 18.4744 54.5752 17.03C53.4039 15.8564 53.1843 14.0904 53.9163 12.6946C53.9726 12.5872 54.0346 12.482 54.1022 12.3795C54.2373 12.1744 54.395 11.9798 54.5752 11.7993C55.6138 10.7586 57.1173 10.4677 58.4158 10.9266L60.4999 8.83837L57.971 6.30446L60.5512 3.71918C61.127 3.14222 61.127 2.20799 60.5512 1.63104C59.9737 1.05246 59.0363 1.05246 58.4589 1.63104L55.8828 4.21218L53.8695 6.22955C54.3526 7.3513 54.2554 8.66389 53.5779 9.70884C53.4654 9.88229 53.337 10.0484 53.1925 10.205C53.1814 10.217 53.1702 10.229 53.1589 10.2409L53.1507 10.2496L53.1399 10.2608L53.1284 10.2728L53.1202 10.2812L53.1151 10.2865L53.1017 10.3L53.0997 10.302L53.0899 10.3119C51.8286 11.5757 49.8815 11.7337 48.4487 10.7858C48.244 10.6504 48.0498 10.4924 47.8696 10.3119C46.6983 9.13826 46.4787 7.37222 47.2108 5.97646C47.2671 5.86909 47.329 5.76392 47.3966 5.66137C47.5317 5.45628 47.6894 5.2617 47.8696 5.08115C48.0565 4.89392 48.2584 4.73096 48.4714 4.59227C49.4426 3.96008 50.6454 3.83215 51.7103 4.20847L53.7947 2.11991C52.4402 0.762701 50.6015 0 48.684 0H23.3841C14.5468 0 7.38274 7.16407 7.38273 16.0014L7.38271 29.5892V42.2803C7.38271 43.6638 7.06116 45.0283 6.44344 46.2662L3.29643 52.5726C1.78129 55.6089 3.9894 59.1786 7.38273 59.1787L25.1012 59.1786H36.9135L50.4429 59.1786C59.2803 59.1786 66.4444 52.0146 66.4444 43.1772L66.4444 17.2978C66.4444 15.6949 65.8085 14.1575 64.6762 13.0229L67.2567 10.4373C67.8325 9.86036 67.8325 8.92613 67.2567 8.34917C66.6792 7.7706 65.7418 7.7706 65.1644 8.34918L62.588 10.9307L60.575 12.9476C60.9978 13.9292 60.9762 15.0569 60.5103 16.0235C60.4521 16.1444 60.3869 16.2627 60.3147 16.3779C60.3093 16.3866 60.3038 16.3953 60.2982 16.404L60.2943 16.4102L60.2924 16.4132L60.2901 16.4168L60.2868 16.4218L60.2834 16.4271ZM52.2176 31.5366C53.9652 30.7825 56.0474 32.0542 55.6224 33.9094C53.6657 42.4512 46.0322 48.8221 36.9136 48.8221C36.8722 48.8221 36.8308 48.822 36.7894 48.8217C27.7265 48.7642 20.1538 42.4135 18.2052 33.9116C17.7799 32.0559 19.8631 30.7831 21.6111 31.5372C25.1163 33.0495 30.6664 34.8905 36.9136 34.8905C43.1616 34.8905 48.7125 33.0489 52.2176 31.5366Z" fill="#FAF9FF"/>
</svg>
